<svg width="36" height="33" viewBox="0 0 36 33" fill="none" xmlns="http://www.w3.org/2000/svg">
<path d="M8.41667 18.2917H27.5833V14.7083H8.41667V18.2917ZM4.58333 32.625C3.52917 32.625 2.62674 32.2741 1.87604 31.5724C1.12535 30.8707 0.75 30.0271 0.75 29.0417V3.95833C0.75 2.97292 1.12535 2.12934 1.87604 1.4276C2.62674 0.725868 3.52917 0.375 4.58333 0.375H31.4167C32.4708 0.375 33.3733 0.725868 34.124 1.4276C34.8747 2.12934 35.25 2.97292 35.25 3.95833V29.0417C35.25 30.0271 34.8747 30.8707 34.124 31.5724C33.3733 32.2741 32.4708 32.625 31.4167 32.625H4.58333Z" fill="#1D1B20"/>
</svg>
