<svg width="40" height="39" viewBox="0 0 40 39" fill="none" xmlns="http://www.w3.org/2000/svg">
<path d="M1.66675 1.66666H8.33341L12.8001 23.9833C12.9525 24.7506 13.3699 25.4399 13.9793 25.9305C14.5887 26.421 15.3512 26.6816 16.1334 26.6667H32.3334C33.1156 26.6816 33.8781 26.421 34.4875 25.9305C35.0969 25.4399 35.5143 24.7506 35.6667 23.9833L38.3334 9.99999H10.0001M16.6667 35C16.6667 35.9205 15.9206 36.6667 15.0001 36.6667C14.0796 36.6667 13.3334 35.9205 13.3334 35C13.3334 34.0795 14.0796 33.3333 15.0001 33.3333C15.9206 33.3333 16.6667 34.0795 16.6667 35ZM35.0001 35C35.0001 35.9205 34.2539 36.6667 33.3334 36.6667C32.4129 36.6667 31.6667 35.9205 31.6667 35C31.6667 34.0795 32.4129 33.3333 33.3334 33.3333C34.2539 33.3333 35.0001 34.0795 35.0001 35Z" stroke="#1E1E1E" stroke-width="4" stroke-linecap="round" stroke-linejoin="round"/>
</svg>
