<svg width="43" height="43" viewBox="0 0 43 43" fill="none" xmlns="http://www.w3.org/2000/svg">
<path d="M8.43125 32.3375C10.2375 30.9563 12.2563 29.8672 14.4875 29.0703C16.7188 28.2734 19.0562 27.875 21.5 27.875C23.9438 27.875 26.2812 28.2734 28.5125 29.0703C30.7437 29.8672 32.7625 30.9563 34.5687 32.3375C35.8083 30.8854 36.7734 29.2385 37.4641 27.3969C38.1547 25.5552 38.5 23.5896 38.5 21.5C38.5 16.7896 36.8443 12.7786 33.5328 9.46719C30.2214 6.15573 26.2104 4.5 21.5 4.5C16.7896 4.5 12.7786 6.15573 9.46719 9.46719C6.15573 12.7786 4.5 16.7896 4.5 21.5C4.5 23.5896 4.84531 25.5552 5.53594 27.3969C6.22656 29.2385 7.19167 30.8854 8.43125 32.3375ZM21.5 23.625C19.4104 23.625 17.6484 22.9078 16.2141 21.4734C14.7797 20.0391 14.0625 18.2771 14.0625 16.1875C14.0625 14.0979 14.7797 12.3359 16.2141 10.9016C17.6484 9.46719 19.4104 8.75 21.5 8.75C23.5896 8.75 25.3516 9.46719 26.7859 10.9016C28.2203 12.3359 28.9375 14.0979 28.9375 16.1875C28.9375 18.2771 28.2203 20.0391 26.7859 21.4734C25.3516 22.9078 23.5896 23.625 21.5 23.625ZM21.5 42.75C18.5604 42.75 15.7979 42.1922 13.2125 41.0766C10.6271 39.9609 8.37813 38.4469 6.46562 36.5344C4.55312 34.6219 3.03906 32.3729 1.92344 29.7875C0.807812 27.2021 0.25 24.4396 0.25 21.5C0.25 18.5604 0.807812 15.7979 1.92344 13.2125C3.03906 10.6271 4.55312 8.37813 6.46562 6.46562C8.37813 4.55312 10.6271 3.03906 13.2125 1.92344C15.7979 0.807812 18.5604 0.25 21.5 0.25C24.4396 0.25 27.2021 0.807812 29.7875 1.92344C32.3729 3.03906 34.6219 4.55312 36.5344 6.46562C38.4469 8.37813 39.9609 10.6271 41.0766 13.2125C42.1922 15.7979 42.75 18.5604 42.75 21.5C42.75 24.4396 42.1922 27.2021 41.0766 29.7875C39.9609 32.3729 38.4469 34.6219 36.5344 36.5344C34.6219 38.4469 32.3729 39.9609 29.7875 41.0766C27.2021 42.1922 24.4396 42.75 21.5 42.75Z" fill="#F9DEDC"/>
</svg>
